2014001_C1_04_grf
version=1
nRows=30
nColumns=19
inDegrees=no
endheader
time	ground_force_1_vx	ground_force_1_vy	ground_force_1_vz	ground_force_1_px	ground_force_1_py	ground_force_1_pz	ground_force_1_mx	ground_force_1_my	ground_force_1_mz	ground_force_2_vx	ground_force_2_vy	ground_force_2_vz	ground_force_2_px	ground_force_2_py	ground_force_2_pz	ground_force_2_mx	ground_force_2_my	ground_force_2_mz
      4.26800000	      0.00000000	      0.00000000	      0.00000000	      0.00000000	      0.00000000	      0.00000000	      0.00000000	      0.00000000	      0.00000000	      7.68641587	    148.85331877	     15.72881043	      0.17330620	     -0.00200000	      0.72896007	      0.00000000	     -0.01253762	      0.00000000
      4.26900000	      0.00000000	      0.00000000	      0.00000000	      0.00000000	      0.00000000	      0.00000000	      0.00000000	      0.00000000	      0.00000000	      7.70953568	    148.17380998	     15.68534654	      0.17329402	     -0.00200000	      0.72898055	      0.00000000	     -0.01602781	      0.00000000
      4.27000000	      0.00000000	      0.00000000	      0.00000000	      0.00000000	      0.00000000	      0.00000000	      0.00000000	      0.00000000	      0.00000000	      7.73315392	    147.49593101	     15.64218514	      0.17328132	     -0.00200000	      0.72900086	      0.00000000	     -0.01946664	      0.00000000
      4.27100000	      0.00000000	      0.00000000	      0.00000000	      0.00000000	      0.00000000	      0.00000000	      0.00000000	      0.00000000	      0.00000000	      7.75729157	    146.82024252	     15.59931384	      0.17326799	     -0.00200000	      0.72902101	      0.00000000	     -0.02284084	      0.00000000
      4.27200000	      0.00000000	      0.00000000	      0.00000000	      0.00000000	      0.00000000	      0.00000000	      0.00000000	      0.00000000	      0.00000000	      7.78176505	    146.14643157	     15.55660553	      0.17325420	     -0.00200000	      0.72904107	      0.00000000	     -0.02616258	      0.00000000
      4.27300000	      0.00000000	      0.00000000	      0.00000000	      0.00000000	      0.00000000	      0.00000000	      0.00000000	      0.00000000	      0.00000000	      7.80656878	    145.47513705	     15.51401326	      0.17323987	     -0.00200000	      0.72906111	      0.00000000	     -0.02941745	      0.00000000
      4.27400000	      0.00000000	      0.00000000	      0.00000000	      0.00000000	      0.00000000	      0.00000000	      0.00000000	      0.00000000	      0.00000000	      7.83156808	    144.80599388	     15.47143925	      0.17322514	     -0.00200000	      0.72908117	      0.00000000	     -0.03261691	      0.00000000
      4.27500000	      0.00000000	      0.00000000	      0.00000000	      0.00000000	      0.00000000	      0.00000000	      0.00000000	      0.00000000	      0.00000000	      7.85672022	    144.13964096	     15.42880200	      0.17320990	     -0.00200000	      0.72910133	      0.00000000	     -0.03574557	      0.00000000
      4.27600000	      0.00000000	      0.00000000	      0.00000000	      0.00000000	      0.00000000	      0.00000000	      0.00000000	      0.00000000	      0.00000000	      7.88192041	    143.47556978	     15.38604479	      0.17319425	     -0.00200000	      0.72912161	      0.00000000	     -0.03881604	      0.00000000
      4.27700000	      0.00000000	      0.00000000	      0.00000000	      0.00000000	      0.00000000	      0.00000000	      0.00000000	      0.00000000	      0.00000000	      7.90709630	    142.81437360	     15.34305876	      0.17317807	     -0.00200000	      0.72914207	      0.00000000	     -0.04181210	      0.00000000
      4.27800000	      0.00000000	      0.00000000	      0.00000000	      0.00000000	      0.00000000	      0.00000000	      0.00000000	      0.00000000	      0.00000000	      7.93219227	    142.15544611	     15.29982630	      0.17316141	     -0.00200000	      0.72916270	      0.00000000	     -0.04474658	      0.00000000
      4.27900000	      0.00000000	      0.00000000	      0.00000000	      0.00000000	      0.00000000	      0.00000000	      0.00000000	      0.00000000	      0.00000000	      7.95712508	    141.49930887	     15.25620921	      0.17314410	     -0.00200000	      0.72918353	      0.00000000	     -0.04759961	      0.00000000
      4.28000000	      0.00000000	      0.00000000	      0.00000000	      0.00000000	      0.00000000	      0.00000000	      0.00000000	      0.00000000	      0.00000000	      7.98188355	    140.84538817	     15.21222442	      0.17312626	     -0.00200000	      0.72920452	      0.00000000	     -0.05038397	      0.00000000
      4.28100000	      0.00000000	      0.00000000	      0.00000000	      0.00000000	      0.00000000	      0.00000000	      0.00000000	      0.00000000	      0.00000000	      8.00637491	    140.19417949	     15.16770311	      0.17310768	     -0.00200000	      0.72922569	      0.00000000	     -0.05307945	      0.00000000
      4.28200000	      0.00000000	      0.00000000	      0.00000000	      0.00000000	      0.00000000	      0.00000000	      0.00000000	      0.00000000	      0.00000000	      8.03061537	    139.54514824	     15.12269415	      0.17308848	     -0.00200000	      0.72924700	      0.00000000	     -0.05570178	      0.00000000
      4.28300000	      0.00000000	      0.00000000	      0.00000000	      0.00000000	      0.00000000	      0.00000000	      0.00000000	      0.00000000	      0.00000000	      8.05450575	    138.89880944	     15.07699611	      0.17306843	     -0.00200000	      0.72926851	      0.00000000	     -0.05822947	     -0.00000000
      4.28400000	      0.00000000	      0.00000000	      0.00000000	      0.00000000	      0.00000000	      0.00000000	      0.00000000	      0.00000000	      0.00000000	      8.07809327	    138.25458288	     15.03068656	      0.17304768	     -0.00200000	      0.72929019	      0.00000000	     -0.06067831	      0.00000000
      4.28500000	      0.00000000	      0.00000000	      0.00000000	      0.00000000	      0.00000000	      0.00000000	      0.00000000	      0.00000000	      0.00000000	      8.10128013	    137.61297055	     14.98354059	      0.17302607	     -0.00200000	      0.72931216	      0.00000000	     -0.06302542	      0.00000000
      4.28600000	      0.00000000	      0.00000000	      0.00000000	      0.00000000	      0.00000000	      0.00000000	      0.00000000	      0.00000000	      0.00000000	      8.12412780	    136.97345741	     14.93567228	      0.17300380	     -0.00200000	      0.72933441	      0.00000000	     -0.06529127	      0.00000000
      4.28700000	      0.00000000	      0.00000000	      0.00000000	      0.00000000	      0.00000000	      0.00000000	      0.00000000	      0.00000000	      0.00000000	      8.14652536	    136.33653894	     14.88685021	      0.17298073	     -0.00200000	      0.72935710	      0.00000000	     -0.06746081	      0.00000000
      4.28800000	      0.00000000	      0.00000000	      0.00000000	      0.00000000	      0.00000000	      0.00000000	      0.00000000	      0.00000000	      0.00000000	      8.16854239	    135.70169359	     14.83722758	      0.17295706	     -0.00200000	      0.72938019	      0.00000000	     -0.06955907	      0.00000000
      4.28900000	      0.00000000	      0.00000000	      0.00000000	      0.00000000	      0.00000000	      0.00000000	      0.00000000	      0.00000000	      0.00000000	      8.19005901	    135.06945595	     14.78656381	      0.17293267	     -0.00200000	      0.72940387	      0.00000000	     -0.07157561	      0.00000000
      4.29000000	      0.00000000	      0.00000000	      0.00000000	      0.00000000	      0.00000000	      0.00000000	      0.00000000	      0.00000000	      0.00000000	      8.21116045	    134.43931751	     14.73503429	      0.17290776	     -0.00200000	      0.72942804	      0.00000000	     -0.07353111	      0.00000000
      4.29100000	      0.00000000	      0.00000000	      0.00000000	      0.00000000	      0.00000000	      0.00000000	      0.00000000	      0.00000000	      0.00000000	      8.23172964	    133.81183241	     14.68239129	      0.17288228	     -0.00200000	      0.72945290	      0.00000000	     -0.07541444	      0.00000000
      4.29200000	      0.00000000	      0.00000000	      0.00000000	      0.00000000	      0.00000000	      0.00000000	      0.00000000	      0.00000000	      0.00000000	      8.25186800	    133.18648562	     14.62883949	      0.17285646	     -0.00200000	      0.72947839	      0.00000000	     -0.07724231	      0.00000000
      4.29300000	      0.00000000	      0.00000000	      0.00000000	      0.00000000	      0.00000000	      0.00000000	      0.00000000	      0.00000000	      0.00000000	      8.27146070	    132.56381825	     14.57412923	      0.17283034	     -0.00200000	      0.72950476	      0.00000000	     -0.07900365	      0.00000000
      4.29400000	      0.00000000	      0.00000000	      0.00000000	      0.00000000	      0.00000000	      0.00000000	      0.00000000	      0.00000000	      0.00000000	      8.29061195	    131.94330223	     14.51847758	      0.17280411	     -0.00200000	      0.72953195	      0.00000000	     -0.08071411	      0.00000000
      4.29500000	      0.00000000	      0.00000000	      0.00000000	      0.00000000	      0.00000000	      0.00000000	      0.00000000	      0.00000000	      0.00000000	      8.30920441	    131.32546563	     14.46163617	      0.17277784	     -0.00200000	      0.72956032	      0.00000000	     -0.08236440	      0.00000000
      4.29600000	      0.00000000	      0.00000000	      0.00000000	      0.00000000	      0.00000000	      0.00000000	      0.00000000	      0.00000000	      0.00000000	      8.32734536	    130.70979342	     14.40383513	      0.17275165	     -0.00200000	      0.72958975	      0.00000000	     -0.08396759	      0.00000000
      4.29700000	      0.00000000	      0.00000000	      0.00000000	      0.00000000	      0.00000000	      0.00000000	      0.00000000	      0.00000000	      0.00000000	      8.34491188	    130.09678107	     14.34482867	      0.17272562	     -0.00200000	      0.72962066	      0.00000000	     -0.08551320	      0.00000000
